<!DOCTYPE svg PUBLIC "-//W3C//DTD SVG 1.1//EN" "http://www.w3.org/Graphics/SVG/1.1/DTD/svg11.dtd">
<!-- Uploaded to: SVG Repo, www.svgrepo.com, Transformed by: SVG Repo Mixer Tools -->
<svg width="64px" height="64px" viewBox="-32 -32 96.00 96.00" xmlns="http://www.w3.org/2000/svg" fill="#5c605e">
<g id="SVGRepo_bgCarrier" stroke-width="0"/>
<g id="SVGRepo_tracerCarrier" stroke-linecap="round" stroke-linejoin="round"/>
<g id="SVGRepo_iconCarrier"> <defs> <style>.cls-1{fill:#5c605e;}</style> </defs> <g id="time"> <path class="cls-1" d="M16,29A13,13,0,1,1,29,16,13,13,0,0,1,16,29ZM16,5A11,11,0,1,0,27,16,11,11,0,0,0,16,5Z"/> <path class="cls-1" d="M22,17H18a3,3,0,0,1-3-3V8.8a1,1,0,1,1,2,0V14a1,1,0,0,0,1,1h4a1,1,0,0,1,0,2Z"/> </g> </g>
</svg>